<svg>
  <symbol id="logo" viewBox="0 0 94 21" fill="none" xmlns="http://www.w3.org/2000/svg">
    <path fill-rule="evenodd" clip-rule="evenodd" d="M13.123 14.968C13.123 18.266 10.506 20.658 6.348 20.658C5.15335 20.6242 3.97725 20.3539 2.88767 19.8628C1.79808 19.3717 0.816623 18.6696 0 17.797L1.39 16.255C2.692 17.498 4.223 18.706 6.32 18.706C8.65 18.706 11.161 17.396 11.161 15.042C11.161 13.087 9.613 11.812 6.359 10.807C2.651 9.67 0.77 8.128 0.77 5.227C0.768 2.356 3.188 0 6.64 0C9.217 0 10.83 1.102 12.399 2.51L11.032 4.033C9.656 2.81 8.345 1.981 6.736 1.981C4.74 1.98 2.77 3.272 2.77 5.13C2.77 6.814 3.734 7.887 7.14 8.933C10.26 9.897 13.123 11.391 13.123 14.966V14.968ZM29.948 1.898C29.948 2.802 30.678 3.536 31.579 3.536C32.012 3.536 32.427 3.363 32.733 3.056C32.9607 2.82686 33.1157 2.53556 33.1785 2.21867C33.2412 1.90178 33.209 1.5734 33.0859 1.27475C32.9627 0.976093 32.7541 0.720464 32.4862 0.539936C32.2183 0.359408 31.903 0.262022 31.58 0.26C30.679 0.26 29.949 0.993 29.949 1.898H29.948ZM50.328 19.676C50.328 19.676 51.538 20.663 55.572 20.663L55.57 20.662C59.552 20.662 62.784 17.74 62.784 13.747C62.784 9.755 59.554 6.844 55.572 6.844C54.442 6.814 53.322 7.044 52.294 7.517V0.599H50.328V19.676ZM65.087 13.767C65.087 17.761 68.313 21 72.294 21C76.275 21 79.503 17.762 79.504 13.768C79.504 9.774 76.276 6.536 72.295 6.536C68.315 6.536 65.087 9.773 65.087 13.767ZM91.433 20.337H94L88.324 13.553L93.617 7.191H91.065L87.045 12.023L83.004 7.191H80.437L85.768 13.561L80.132 20.337H82.683L87.047 15.092L91.433 20.337ZM72.313 8.49C71.2737 8.49068 70.2579 8.79991 69.3945 9.3785C68.531 9.95708 67.8588 10.779 67.463 11.74C67.0655 12.7023 66.9613 13.7606 67.1636 14.7819C67.3659 15.8032 67.8657 16.7419 68.6 17.48C69.3326 18.2162 70.2677 18.7179 71.2863 18.9213C72.3048 19.1246 73.3608 19.0204 74.32 18.622C75.2803 18.2216 76.1004 17.5458 76.6771 16.6798C77.2537 15.8138 77.5609 14.7964 77.56 13.756C77.56 10.848 75.21 8.49 72.312 8.49H72.313ZM55.583 8.823C54.4076 8.83931 53.2646 9.21055 52.304 9.888V18.033C53.3222 18.5296 54.451 18.7562 55.582 18.691C58.478 18.691 60.827 16.661 60.827 13.757C60.827 10.853 58.476 8.822 55.58 8.822H55.582L55.583 8.823ZM45.748 0.6H43.781V20.334H45.748V0.6ZM37.231 0.6H39.198V20.334H37.231V0.6ZM18.209 13.44L18.203 13.434L18.209 13.428V13.44ZM18.209 20.334V13.44L25.082 20.337H27.863L20.983 13.434L27.212 7.181H24.43L18.208 13.428V0.6H16.241V20.334H18.208H18.209ZM30.666 20.337H32.632V7.181H30.666V20.337Z" fill="white"/>
  </symbol>
  <symbol id="facebook" viewBox="0 0 61 61" fill="none" xmlns="http://www.w3.org/2000/svg">
    <path d="M30.9166 0.120117C14.4167 0.120117 0.916672 13.6442 0.916672 30.3008C0.916672 45.3611 11.8967 57.8611 26.2366 60.1201V39.0358H18.6166V30.3008H26.2366V23.6442C26.2366 16.084 30.7066 11.9273 37.5766 11.9273C40.8466 11.9273 44.2666 12.4996 44.2666 12.4996V19.9394H40.4866C36.7666 19.9394 35.5966 22.2587 35.5966 24.6382V30.3008H43.9366L42.5866 39.0358H35.5966V60.1201C42.6659 58.9992 49.1032 55.3777 53.7464 49.9095C58.3895 44.4412 60.9326 37.4865 60.9166 30.3008C60.9166 13.6442 47.4166 0.120117 30.9166 0.120117Z" fill="currentColor"/>
  </symbol>
  <symbol id="vk" viewBox="0 0 60 60" fill="none" xmlns="http://www.w3.org/2000/svg">
    <path d="M30 0C13.432 0 0 13.4314 0 30C0 46.5686 13.432 60 30 60C46.568 60 60 46.5686 60 30C60 13.4314 46.568 0 30 0ZM45.2176 33.2446C46.6159 34.6103 48.0951 35.8957 49.3504 37.4026C49.9065 38.0692 50.4307 38.7585 50.8297 39.5337C51.3993 40.6392 50.8849 41.8515 49.8954 41.9171L43.7494 41.9159C42.162 42.0473 40.8988 41.4071 39.8339 40.3218C38.9837 39.457 38.195 38.5332 37.3762 37.6389C37.0416 37.2718 36.6893 36.9262 36.2695 36.6543C35.4316 36.1093 34.7036 36.2762 34.2236 37.1515C33.7344 38.0421 33.6227 39.0292 33.5761 40.0205C33.5092 41.4697 33.0721 41.8484 31.618 41.9165C28.5109 42.062 25.5628 41.5906 22.8227 40.0241C20.4055 38.6425 18.5346 36.6924 16.9043 34.4845C13.7297 30.1805 11.2984 25.4566 9.11386 20.597C8.6222 19.5026 8.98189 18.917 10.1893 18.8943C12.1952 18.8557 14.2011 18.8606 16.2071 18.8925C17.0234 18.9054 17.5636 19.3725 17.8772 20.1428C18.9612 22.8098 20.2901 25.3473 21.9554 27.7007C22.3992 28.3274 22.8522 28.9522 23.4973 29.3948C24.2093 29.8834 24.7519 29.7219 25.0877 28.9271C25.3025 28.4219 25.3952 27.8817 25.4418 27.3404C25.6014 25.486 25.6205 23.6323 25.3442 21.7854C25.1724 20.6296 24.5224 19.8832 23.3702 19.6647C22.7834 19.5536 22.8694 19.3363 23.1548 19.0011C23.6501 18.4217 24.1142 18.0632 25.0416 18.0632L31.9857 18.062C33.0801 18.2768 33.3256 18.7679 33.4742 19.8703L33.4803 27.5871C33.4674 28.0137 33.6945 29.2782 34.4606 29.5574C35.0744 29.76 35.4795 29.2677 35.8465 28.8792C37.5118 27.112 38.6983 25.0263 39.7608 22.8675C40.2298 21.9155 40.6343 20.9303 41.0271 19.9433C41.3193 19.2135 41.7735 18.8544 42.5972 18.8667L49.2841 18.8747C49.4811 18.8747 49.6812 18.8765 49.8764 18.9103C51.0034 19.103 51.3121 19.5879 50.9635 20.6873C50.4147 22.4145 49.3485 23.8533 48.3063 25.2958C47.1892 26.8401 45.9977 28.3304 44.8917 29.8815C43.8752 31.2994 43.9556 32.0133 45.2176 33.2446Z" fill="currentColor"/>
  </symbol>
  <symbol id="inst" viewBox="0 0 60 60" fill="none" xmlns="http://www.w3.org/2000/svg">
    <path d="M24.2578 30C24.2578 33.1714 26.8286 35.7422 30 35.7422C33.1714 35.7422 35.7422 33.1714 35.7422 30C35.7422 26.8286 33.1714 24.2578 30 24.2578C26.8286 24.2578 24.2578 26.8286 24.2578 30Z" fill="currentColor"/>
    <path d="M16.571 19.8403C16.8471 19.0923 17.2874 18.4153 17.8596 17.8596C18.4154 17.2874 19.0919 16.847 19.8404 16.571C20.4474 16.3352 21.3593 16.0546 23.0388 15.9781C24.8557 15.8953 25.4004 15.8774 30 15.8774C34.6001 15.8774 35.1448 15.8948 36.9612 15.9777C38.6407 16.0546 39.5531 16.3352 40.1596 16.571C40.9081 16.847 41.5851 17.2874 42.1404 17.8596C42.7126 18.4153 43.1529 19.0919 43.4294 19.8403C43.6652 20.4473 43.9458 21.3596 44.0222 23.0392C44.1051 24.8556 44.1229 25.4003 44.1229 30.0004C44.1229 34.6 44.1051 35.1447 44.0222 36.9616C43.9458 38.6411 43.6652 39.553 43.4294 40.16C43.1529 40.9084 42.713 41.585 42.1408 42.1407C41.5851 42.7129 40.9085 43.1533 40.1601 43.4293C39.5531 43.6655 38.6407 43.9461 36.9612 44.0226C35.1448 44.1054 34.6005 44.1228 30.0005 44.1228C25.3999 44.1228 24.8552 44.1054 23.0392 44.0226C21.3597 43.9461 20.4474 43.6655 19.8404 43.4293C18.338 42.8498 17.1506 41.6624 16.571 40.16C16.3353 39.553 16.0547 38.6411 15.9778 36.9616C15.8949 35.1447 15.8775 34.6 15.8775 30.0004C15.8775 25.4003 15.8949 24.8556 15.9778 23.0392C16.0542 21.3596 16.3348 20.4473 16.571 19.8403ZM30 38.8457C34.8857 38.8457 38.8463 34.8856 38.8463 29.9999C38.8463 25.1142 34.8857 21.1541 30 21.1541C25.1147 21.1541 21.1542 25.1142 21.1542 29.9999C21.1542 34.8856 25.1147 38.8457 30 38.8457ZM20.8044 22.8716C21.9461 22.8716 22.8717 21.946 22.8717 20.8044C22.8717 19.6627 21.9461 18.7371 20.8044 18.7371C19.6628 18.7371 18.7372 19.6627 18.7372 20.8044C18.7376 21.946 19.6628 22.8716 20.8044 22.8716Z" fill="currentColor"/>
    <path d="M30 0C46.566 0 60 13.434 60 30C60 46.566 46.566 60 30 60C13.434 60 0 46.566 0 30C0 13.434 13.434 0 30 0ZM12.8773 37.1022C12.9607 38.936 13.2523 40.188 13.678 41.2839C14.5729 43.5979 16.4021 45.4271 18.7161 46.322C19.8116 46.7477 21.064 47.0389 22.8973 47.1227C24.7343 47.2064 25.3212 47.2266 29.9995 47.2266C34.6783 47.2266 35.2647 47.2064 37.1022 47.1227C38.9355 47.0389 40.188 46.7477 41.2834 46.322C42.4333 45.8894 43.4743 45.2115 44.3349 44.3349C45.211 43.4747 45.889 42.4333 46.3216 41.2839C46.7473 40.1884 47.0389 38.936 47.1222 37.1027C47.2069 35.2652 47.2266 34.6783 47.2266 30C47.2266 25.3217 47.2069 24.7348 47.1227 22.8978C47.0393 21.064 46.7482 19.812 46.3225 18.7161C45.8899 17.5667 45.2115 16.5253 44.3349 15.6651C43.4747 14.7885 42.4333 14.1106 41.2839 13.678C40.188 13.2523 38.936 12.9611 37.1022 12.8773C35.2652 12.7936 34.6783 12.7734 30 12.7734C25.3217 12.7734 24.7348 12.7936 22.8978 12.8778C21.064 12.9611 19.812 13.2523 18.7161 13.6775C17.5667 14.1101 16.5253 14.7885 15.6647 15.6651C14.7885 16.5257 14.1101 17.5667 13.678 18.7161C13.2518 19.812 12.9607 21.064 12.8769 22.8978C12.7931 24.7348 12.7734 25.3217 12.7734 30C12.7734 34.6783 12.7931 35.2652 12.8773 37.1022Z" fill="currentColor"/>
  </symbol>
  <symbol id="burger" viewBox="0 0 30 23" fill="none" xmlns="http://www.w3.org/2000/svg">
    <rect width="30" height="3" fill="currentColor"/>
    <rect y="10" width="30" height="3" fill="currentColor"/>
    <rect y="20" width="30" height="3" fill="currentColor"/>
  </symbol>
  <symbol id="burger_close" viewBox="0 0 23 23" fill="none" xmlns="http://www.w3.org/2000/svg">
    <rect x="2.09082" width="29.5699" height="2.95699" transform="rotate(45 2.09082 0)" fill="#333333"/>
    <rect y="20.9092" width="29.5699" height="2.95699" transform="rotate(-45 0 20.9092)" fill="#333333"/>
  </symbol>
  <symbol id="about-1" viewBox="0 0 80 80" fill="none" xmlns="http://www.w3.org/2000/svg">
    <path d="M40 0C34.7471 0 29.5457 1.03463 24.6927 3.04482C19.8396 5.05501 15.4301 8.00138 11.7157 11.7157C4.21427 19.2172 0 29.3913 0 40C0 50.6087 4.21427 60.7828 11.7157 68.2843C15.4301 71.9986 19.8396 74.945 24.6927 76.9552C29.5457 78.9654 34.7471 80 40 80C50.6087 80 60.7828 75.7857 68.2843 68.2843C75.7857 60.7828 80 50.6087 80 40C80 34.7471 78.9654 29.5457 76.9552 24.6927C74.945 19.8396 71.9986 15.4301 68.2843 11.7157C64.5699 8.00138 60.1604 5.05501 55.3073 3.04482C50.4543 1.03463 45.2529 0 40 0ZM40 56C29.48 56 20 49.72 16 40C21.52 26.76 36.76 20.48 50 26C56.32 28.64 61.36 33.68 64 40C60 49.72 50.52 56 40 56Z" fill="#3F2AFF"/>
    <path fill-rule="evenodd" clip-rule="evenodd" d="M40.3571 30.3125C37.6931 30.3125 35.1382 31.3708 33.2545 33.2545C31.3708 35.1382 30.3125 37.6931 30.3125 40.3571C30.3125 43.0211 31.3708 45.576 33.2545 47.4598C35.1382 49.3435 37.6931 50.4018 40.3571 50.4018C43.0212 50.4018 45.576 49.3435 47.4598 47.4598C49.3435 45.576 50.4018 43.0211 50.4018 40.3571C50.4018 37.6931 49.3435 35.1382 47.4598 33.2545C45.576 31.3708 43.0212 30.3125 40.3571 30.3125ZM40.3565 44.8772C42.8529 44.8772 44.8766 42.8535 44.8766 40.3571C44.8766 37.8608 42.8529 35.837 40.3565 35.837C37.8601 35.837 35.8364 37.8608 35.8364 40.3571C35.8364 42.8535 37.8601 44.8772 40.3565 44.8772Z" fill="#212133"/>
  </symbol>
  <symbol id="about-2" viewBox="0 0 80 80" fill="none" xmlns="http://www.w3.org/2000/svg">
    <g clip-path="url(#clip0)">
    <path d="M37.9097 43.3674C37.9097 43.6773 38.1609 43.9286 38.4709 43.9286H39.1893C39.0672 43.5678 39.0232 43.1852 39.0602 42.8062H38.4709C38.1609 42.8062 37.9097 43.0574 37.9097 43.3674Z" fill="#212133"/>
    <path d="M42.3527 24.3258C41.9158 24.2327 41.4598 24.317 41.0851 24.5601C40.7104 24.8033 40.4477 25.1853 40.3547 25.6223L38.7384 35.9264C38.6658 36.3185 38.3296 36.607 37.931 36.6191C37.5323 36.6313 37.1792 36.3639 37.0828 35.9769L35.1017 26.8626C35.0133 26.2532 34.5994 25.7407 34.0222 25.5261C33.4451 25.3115 32.7968 25.4291 32.3318 25.8327C31.8668 26.2362 31.6592 26.8615 31.7904 27.4631L33.6706 37.7559C33.8156 38.5397 33.806 39.3442 33.6425 40.1243C34.2164 39.5579 34.8297 39.0328 35.4777 38.5529C36.1519 38.0386 36.9757 37.7588 37.8236 37.7559H41.5726L43.6491 26.3294C43.7439 25.8917 43.6605 25.4343 43.4172 25.0583C43.1739 24.6823 42.7908 24.4187 42.3527 24.3258Z" fill="#212133"/>
    <path d="M43.1222 45.1183C42.8293 45.3305 42.4975 45.4831 42.1457 45.5673C42.2219 45.6896 42.2894 45.8172 42.3477 45.9489C42.4232 46.1218 42.4068 46.3211 42.3039 46.4793C42.2011 46.6375 42.0257 46.7334 41.837 46.7347C41.6152 46.7332 41.415 46.6012 41.3263 46.3979C40.9681 45.5772 40.1565 45.0479 39.261 45.051H38.4697C37.5398 45.051 36.786 44.2972 36.786 43.3673C36.786 42.4374 37.5398 41.6836 38.4697 41.6836H40.1534C41.3932 41.6836 42.3983 40.6786 42.3983 39.4387V38.8775H37.8243C37.2171 38.8775 36.6263 39.0744 36.1406 39.4387C33.9406 41.0775 31.735 43.5188 31.735 46.3025C31.7334 47.5568 32.126 48.7799 32.8574 49.7989L35.6636 53.6714C36.0898 54.2629 36.2891 54.988 36.2248 55.7142H45.7656C45.7656 54.1877 45.6141 54.5918 48.0835 50.3882C48.7329 49.0753 49.0909 47.6376 49.1329 46.1734V43.5806L47.8253 45.6627C47.3097 46.5515 46.3161 47.0499 45.2954 46.9318C44.2746 46.8136 43.4212 46.1014 43.1222 45.1183Z" fill="#212133"/>
    <path d="M40.18 42.8061C40.0771 43.2768 40.2209 43.7674 40.5616 44.1081C40.9023 44.4488 41.393 44.5926 41.8637 44.4897C42.6774 44.3101 42.9861 43.676 43.407 42.9576C45.6968 39.2984 45.6126 39.4443 45.6519 39.3321C46.1673 38.6082 45.999 37.6036 45.2759 37.0872C44.9118 36.8836 44.4813 36.8343 44.0806 36.9503C43.6799 37.0663 43.3423 37.3379 43.1433 37.7045L42.9917 37.9459C43.3139 38.1471 43.5124 38.4977 43.5193 38.8775V39.4387C43.5193 41.2875 42.0288 42.7907 40.18 42.8061Z" fill="#212133"/>
    <path d="M49.0221 38.8774C48.2933 38.4623 47.366 38.7129 46.9456 39.4387C46.6201 39.9662 47.1701 39.0346 44.3696 43.5581C44.1487 43.9065 44.076 44.3287 44.1675 44.731C44.3148 45.3223 44.8127 45.7607 45.4179 45.8318C46.0231 45.9029 46.6091 45.5919 46.8895 45.0509L49.4711 40.9484C49.9189 40.2525 49.7179 39.3254 49.0221 38.8774Z" fill="#212133"/>
    </g>
    <path fill-rule="evenodd" clip-rule="evenodd" d="M24.6927 3.04482C29.5457 1.03463 34.7471 0 40 0C45.2529 0 50.4543 1.03463 55.3073 3.04482C60.1604 5.05501 64.5699 8.00138 68.2843 11.7157C71.9986 15.4301 74.945 19.8396 76.9552 24.6927C78.9654 29.5457 80 34.7471 80 40C80 50.6087 75.7857 60.7828 68.2843 68.2843C60.7828 75.7857 50.6087 80 40 80C34.7471 80 29.5457 78.9654 24.6927 76.9552C19.8396 74.945 15.4301 71.9986 11.7157 68.2843C4.21427 60.7828 0 50.6087 0 40C0 29.3913 4.21427 19.2172 11.7157 11.7157C15.4301 8.00138 19.8396 5.05501 24.6927 3.04482ZM40.3571 62.1429C52.3891 62.1429 62.1429 52.3891 62.1429 40.3571C62.1429 28.3252 52.3891 18.5714 40.3571 18.5714C28.3252 18.5714 18.5714 28.3252 18.5714 40.3571C18.5714 52.3891 28.3252 62.1429 40.3571 62.1429Z" fill="#3F2AFF"/>
    <defs>
    <clipPath id="clip0">
    <rect width="31.4286" height="31.4286" fill="white" transform="translate(25 24.2857)"/>
    </clipPath>
    </defs>
  </symbol>
  <symbol id="about-3" viewBox="0 0 78 80" fill="none" xmlns="http://www.w3.org/2000/svg">
    <g clip-path="url(#clip0)">
    <path fill-rule="evenodd" clip-rule="evenodd" d="M24.0068 3.04482C28.725 1.03463 33.7819 0 38.8889 0C43.9958 0 49.0528 1.03463 53.771 3.04482C58.4892 5.05501 62.7763 8.00138 66.3875 11.7157C69.9986 15.4301 72.8632 19.8396 74.8175 24.6927C76.7719 29.5457 77.7778 34.7471 77.7778 40C77.7778 50.6087 73.6806 60.7828 66.3875 68.2843C59.0944 75.7857 49.2029 80 38.8889 80C33.7819 80 28.725 78.9654 24.0068 76.9552C19.2885 74.945 15.0015 71.9986 11.3903 68.2843C4.09721 60.7828 0 50.6087 0 40C0 29.3913 4.09721 19.2172 11.3903 11.7157C15.0015 8.00138 19.2885 5.05501 24.0068 3.04482ZM39.2361 62.1429C50.9338 62.1429 60.4167 52.3891 60.4167 40.3571C60.4167 28.3252 50.9338 18.5714 39.2361 18.5714C27.5384 18.5714 18.0556 28.3252 18.0556 40.3571C18.0556 52.3891 27.5384 62.1429 39.2361 62.1429Z" fill="#3F2AFF"/>
    <g clip-path="url(#clip1)">
    <path d="M38.8881 43.1122V33.8508C38.6329 33.8751 38.3805 33.916 38.1238 33.9282H30.7723C30.3651 33.9282 30.0345 34.2682 30.0345 34.6871V35.4459H27.8211C27.4138 35.4459 27.0833 35.7859 27.0833 36.2048V40.7581C27.0833 41.177 27.4138 41.517 27.8211 41.517H30.0345V42.2759C30.0345 42.6948 30.3651 43.0348 30.7723 43.0348H31.2194L34.1854 51.1669C34.3669 51.6541 34.7727 52.0078 35.2714 52.111C35.3703 52.1322 35.4692 52.1428 35.5666 52.1428C35.9605 52.1428 36.3353 51.982 36.6039 51.6936L38.3761 49.8859C38.8291 49.42 38.9368 48.693 38.6476 48.1299L36.1716 43.0348H38.1312C38.385 43.0469 38.6358 43.0879 38.8881 43.1122Z" fill="#212133"/>
    <path d="M50.5728 28.2244C50.5581 28.1986 50.5448 28.1774 50.5256 28.1531C50.4445 28.0468 50.3426 27.9603 50.2172 27.9102C50.2128 27.9087 50.2098 27.9026 50.2054 27.9011C50.1907 27.8966 50.1774 27.9042 50.1626 27.8996C50.0962 27.8799 50.0298 27.8571 49.956 27.8571C49.9059 27.8571 49.8616 27.8768 49.8129 27.8875C49.7849 27.8935 49.7583 27.8951 49.7303 27.9042C49.6034 27.9467 49.4942 28.0195 49.4071 28.1197C49.4012 28.1258 49.3924 28.1273 49.3865 28.1333C47.086 31.0065 43.878 32.928 40.3646 33.6322V43.3322C43.878 44.0365 47.086 45.9564 49.3865 48.8296C49.3924 48.8371 49.4027 48.8402 49.4101 48.8493C49.4617 48.9085 49.5252 48.9555 49.593 48.995C49.6152 49.0087 49.6329 49.0284 49.655 49.039C49.748 49.08 49.8483 49.1058 49.956 49.1058C50.0401 49.1058 50.1228 49.0906 50.2054 49.0618C50.2098 49.0603 50.2128 49.0542 50.2172 49.0527C50.3426 49.0026 50.4445 48.9176 50.5256 48.8098C50.5433 48.7855 50.5566 48.7643 50.5728 48.7385C50.6437 48.6216 50.6938 48.4926 50.6938 48.3469V28.616C50.6938 28.4703 50.6437 28.3413 50.5728 28.2244Z" fill="#212133"/>
    </g>
    </g>
    <defs>
    <clipPath id="clip0">
    <rect width="77.7778" height="80" fill="white"/>
    </clipPath>
    <clipPath id="clip1">
    <rect width="23.6111" height="24.2857" fill="white" transform="translate(27.0833 27.8571)"/>
    </clipPath>
    </defs>
  </symbol>
</svg>
