<svg xmlns="http://www.w3.org/2000/svg" width="19" height="19" viewBox="0 0 19 19"><g><g opacity=".8"><path fill="#494949" d="M18.425 11.678v7.37H14.46v-6.876c0-1.728-.573-2.907-2.008-2.907-1.096 0-1.748.795-2.034 1.563-.105.275-.132.657-.132 1.042v7.177H6.32s.054-11.645 0-12.852h3.966v1.822c-.008.014-.019.028-.026.041h.026v-.04c.527-.875 1.468-2.125 3.574-2.125 2.609 0 4.565 1.837 4.565 5.785zM4.39 2.22c0 1.234-.86 2.222-2.244 2.222H2.12c-1.33 0-2.192-.988-2.192-2.222C-.073.96.815 0 2.171 0 3.529 0 4.362.96 4.39 2.22zM.163 6.195h3.964v12.852H.163z"/></g></g></svg>