<svg xmlns="http://www.w3.org/2000/svg" width="115" height="44" viewBox="0 0 115 44"><g><g><path fill="#3172b9" d="M-.001 25.44V.326h3.225v21.848h8.913v3.264zM21.009.326v25.112h-3.225V.327zm27.994 3.437c2.493 2.511 3.74 5.54 3.74 9.088 0 3.546-1.247 6.576-3.74 9.088-2.493 2.51-5.5 3.766-9.022 3.766-3.522 0-6.529-1.255-9.023-3.766-2.493-2.512-3.739-5.542-3.739-9.088 0-3.548 1.246-6.577 3.74-9.088 2.493-2.512 5.5-3.767 9.022-3.767 3.522 0 6.53 1.255 9.022 3.767zm-9.022-.487c-2.629 0-4.87.934-6.724 2.802-1.854 1.868-2.781 4.125-2.781 6.773 0 2.646.93 4.907 2.789 6.78 1.86 1.873 4.098 2.81 6.716 2.81 2.628 0 4.87-.937 6.724-2.81s2.782-4.134 2.782-6.78c0-2.648-.928-4.905-2.782-6.773-1.854-1.868-4.096-2.802-6.724-2.802zM58.64.327h2.945L71.869 18.25V.327h3.242v25.112H72.29L61.865 7.295V25.44H58.64zm26.278 0v25.112h-3.226V.327zm25.89 19.132l2.415 2.182c-2.95 2.71-6.072 4.065-9.365 4.065-3.522 0-6.524-1.25-9.007-3.75-2.483-2.502-3.724-5.526-3.724-9.073 0-3.536 1.241-6.56 3.724-9.072C97.334 1.3 100.336.044 103.858.044c3.293 0 6.415 1.356 9.365 4.065l-2.415 2.214c-2.223-1.989-4.54-2.983-6.95-2.983-2.608 0-4.839.932-6.693 2.794-1.855 1.862-2.782 4.112-2.782 6.749 0 2.647.927 4.902 2.782 6.765 1.854 1.862 4.085 2.793 6.693 2.793 2.41 0 4.727-.993 6.95-2.982zM52.977 40.864h3.345v.673h-4.075V34.31h.73zm4.56-1.532c.021.238.078.463.173.674a1.772 1.772 0 0 0 .913.908c.203.09.422.133.659.133.358 0 .667-.083.927-.25.26-.167.458-.359.593-.577l.517.43c-.284.36-.596.618-.938.775a2.615 2.615 0 0 1-1.1.235c-.35 0-.677-.063-.978-.189-.3-.126-.559-.3-.775-.525a2.51 2.51 0 0 1-.512-.797 2.63 2.63 0 0 1-.188-1.001c0-.36.061-.694.183-1 .122-.306.29-.572.507-.796.216-.225.47-.4.76-.527.29-.125.604-.188.943-.188.358 0 .679.065.962.194.284.13.522.301.715.516.193.214.34.466.441.755.102.29.153.597.153.924v.306zm3.225-.551c0-.456-.136-.825-.406-1.108-.27-.283-.649-.424-1.135-.424-.216 0-.426.043-.629.127-.203.086-.38.2-.532.343a1.71 1.71 0 0 0-.365.49 1.267 1.267 0 0 0-.137.572zm2.31 3.716c.196.265.451.478.766.638.314.16.664.24 1.049.24.337 0 .625-.05.861-.148a1.5 1.5 0 0 0 .573-.403c.146-.17.25-.37.315-.597.063-.228.095-.472.095-.73v-.858h-.02c-.216.327-.48.558-.79.694a2.423 2.423 0 0 1-.984.204c-.344 0-.667-.061-.967-.183a2.442 2.442 0 0 1-.786-.506c-.223-.215-.399-.47-.527-.77a2.43 2.43 0 0 1-.193-.97c0-.347.061-.671.183-.97.122-.3.288-.562.502-.787.213-.224.466-.399.76-.526.293-.125.617-.188.968-.188.142 0 .292.013.45.04a2.111 2.111 0 0 1 .948.424c.156.12.301.27.437.455h.02v-.797h.668v4.738c0 .258-.032.534-.095.826-.065.293-.19.562-.376.807a2.13 2.13 0 0 1-.775.613c-.332.163-.764.245-1.298.245-.472 0-.895-.078-1.267-.236a2.934 2.934 0 0 1-1.013-.724zm.122-3.41a1.88 1.88 0 0 0 .512 1.292c.159.166.344.3.557.397.213.1.445.148.695.148a1.839 1.839 0 0 0 1.277-.505c.169-.16.3-.352.39-.577.092-.224.134-.476.127-.755 0-.252-.04-.488-.122-.71a1.706 1.706 0 0 0-.355-.582 1.713 1.713 0 0 0-.567-.398 1.832 1.832 0 0 0-.75-.148c-.25 0-.482.05-.695.148a1.838 1.838 0 0 0-1.069 1.69zm8.748-.48v-.122c0-.824-.405-1.236-1.216-1.236-.555 0-1.038.187-1.45.562l-.405-.48c.446-.463 1.115-.694 2.006-.694.23 0 .452.034.665.102.212.067.396.172.552.312.155.14.28.314.375.525.095.21.142.464.142.756v2.133c0 .184.009.376.025.577.017.201.036.366.056.495h-.649a3.897 3.897 0 0 1-.045-.377 5.542 5.542 0 0 1-.015-.399h-.02c-.197.321-.428.55-.695.69-.267.14-.594.21-.979.21-.21 0-.411-.03-.608-.088a1.549 1.549 0 0 1-.522-.265 1.284 1.284 0 0 1-.502-1.047c0-.388.1-.693.3-.914a1.83 1.83 0 0 1 .75-.495c.3-.108.621-.176.963-.204.341-.027.654-.04.937-.04zm-.344.551c-.17 0-.38.01-.634.026a3.63 3.63 0 0 0-.73.123 1.603 1.603 0 0 0-.598.301.687.687 0 0 0-.248.562c0 .156.032.29.096.403.064.112.15.203.258.275.108.071.228.123.36.154.132.03.266.045.4.045.243 0 .455-.04.634-.123.179-.081.33-.191.45-.33a1.33 1.33 0 0 0 .27-.49c.057-.188.086-.388.086-.599v-.347zm3.385 2.38h-.669v-7.72h.669zm8.068-6.034c-.317-.47-.78-.705-1.389-.705a2.03 2.03 0 0 0-.557.077 1.55 1.55 0 0 0-.491.234 1.174 1.174 0 0 0-.482.996c0 .326.092.581.274.76.182.181.408.33.679.445.27.115.566.22.887.311.32.092.617.215.886.368.271.153.498.355.68.607.182.252.273.596.273 1.031 0 .327-.07.622-.207.883a2.044 2.044 0 0 1-.548.66c-.226.176-.48.312-.76.407a2.61 2.61 0 0 1-.846.143c-.44 0-.857-.083-1.252-.25a2.383 2.383 0 0 1-1.009-.822l.67-.48c.154.266.37.478.646.639.276.16.603.24.98.24.182 0 .364-.03.546-.087.182-.058.345-.143.49-.256.144-.111.264-.25.359-.413.094-.164.14-.35.14-.562 0-.251-.052-.46-.156-.627a1.347 1.347 0 0 0-.415-.419 2.597 2.597 0 0 0-.589-.28 47.37 47.37 0 0 0-.679-.226 7.265 7.265 0 0 1-.68-.255 2.334 2.334 0 0 1-.587-.362 1.625 1.625 0 0 1-.415-.552c-.105-.22-.158-.498-.158-.832 0-.347.066-.65.198-.908a1.89 1.89 0 0 1 .527-.644c.22-.17.468-.296.745-.378.277-.081.561-.122.851-.122.406 0 .774.065 1.106.194.33.13.638.357.922.685zm6.792 3.644c0 .361-.063.694-.188 1a2.41 2.41 0 0 1-.521.798 2.39 2.39 0 0 1-.796.525c-.308.126-.648.19-1.02.19-.364 0-.7-.064-1.008-.19a2.377 2.377 0 0 1-.795-.525 2.4 2.4 0 0 1-.522-.797 2.618 2.618 0 0 1-.188-1.001c0-.36.062-.694.188-1 .124-.306.298-.572.522-.797.222-.224.487-.399.795-.526a2.65 2.65 0 0 1 1.009-.188c.371 0 .71.063 1.019.188.307.127.572.302.796.526.222.225.396.49.52.796.126.307.189.64.189 1zm-.73 0a2.14 2.14 0 0 0-.127-.745 1.705 1.705 0 0 0-1.667-1.154c-.277 0-.526.05-.745.148-.22.1-.406.234-.558.403-.152.171-.27.372-.355.603-.084.231-.127.48-.127.745 0 .266.043.514.127.746.085.231.203.432.355.601.152.172.338.306.558.404.22.099.468.148.745.148.277 0 .525-.049.745-.148.22-.098.407-.232.562-.404.156-.169.276-.37.36-.601.085-.232.127-.48.127-.746zm2.767 2.39h-.67v-7.72h.67zm5.037 0a5.078 5.078 0 0 1-.024-.384 11.426 11.426 0 0 1-.006-.383h-.02c-.074.13-.169.25-.284.358-.115.11-.243.202-.385.28-.142.079-.293.14-.451.185-.16.044-.316.066-.471.066-.609 0-1.059-.162-1.349-.485-.29-.323-.435-.784-.435-1.383v-3.033h.669v2.645c0 .266.02.5.06.704.041.205.11.376.209.515.097.14.229.246.395.317.165.071.372.107.623.107.033 0 .128-.013.284-.04a1.23 1.23 0 0 0 .492-.226c.171-.122.325-.305.46-.55.135-.246.203-.586.203-1.022v-2.45h.669v3.727a19.474 19.474 0 0 0 .051 1.052zm4.664-4.167h-1.369v2.819c0 .177.017.321.051.433.034.114.081.2.142.261a.483.483 0 0 0 .218.127c.084.025.177.036.279.036.114 0 .233-.017.355-.051.12-.034.233-.078.334-.132l.03.622a2.121 2.121 0 0 1-1.302.123.926.926 0 0 1-.38-.195 1.065 1.065 0 0 1-.284-.387c-.075-.163-.112-.378-.112-.643v-3.013H98.54v-.612h1.003v-1.348h.67v1.348h1.368zm1.885-2.449c0 .143-.05.26-.152.352a.488.488 0 0 1-.334.137.488.488 0 0 1-.335-.137.456.456 0 0 1-.153-.352c0-.143.051-.26.153-.352a.487.487 0 0 1 .335-.138c.121 0 .232.046.334.138.101.091.152.209.152.352zm-.152 6.615h-.67V36.76h.67zm6.406-2.39c0 .362-.063.695-.187 1.002-.126.306-.3.571-.522.797a2.392 2.392 0 0 1-.796.525 2.66 2.66 0 0 1-1.02.19c-.364 0-.7-.064-1.007-.19a2.382 2.382 0 0 1-.796-.525 2.429 2.429 0 0 1-.522-.797 2.618 2.618 0 0 1-.188-1.001c0-.36.062-.694.188-1 .125-.306.299-.572.522-.797.222-.224.488-.399.796-.526a2.643 2.643 0 0 1 1.008-.188c.372 0 .71.063 1.019.188.307.127.572.302.796.526.222.225.396.49.522.796.124.307.187.64.187 1zm-.73 0a2.16 2.16 0 0 0-.126-.744 1.806 1.806 0 0 0-.36-.603 1.697 1.697 0 0 0-.563-.403 1.797 1.797 0 0 0-.745-.148c-.277 0-.526.05-.745.148-.22.1-.405.234-.558.403a1.85 1.85 0 0 0-.354.603c-.085.231-.127.48-.127.745 0 .266.042.514.127.746.084.231.203.432.354.601.153.172.338.306.558.404.22.099.468.148.745.148.277 0 .525-.049.745-.148.22-.098.407-.232.562-.404.156-.169.276-.37.36-.601.085-.232.127-.48.127-.746zm2.584-2.388c.014.13.022.257.026.383.003.126.005.254.005.383h.02c.074-.129.169-.248.284-.358a2.034 2.034 0 0 1 .837-.464c.158-.044.315-.066.47-.066.609 0 1.058.161 1.349.485.29.323.435.784.435 1.383v3.032h-.669v-2.644c0-.531-.09-.937-.274-1.22-.182-.283-.52-.424-1.013-.424a2.72 2.72 0 0 0-.283.041 1.23 1.23 0 0 0-.492.224 1.616 1.616 0 0 0-.461.552c-.135.245-.203.585-.203 1.021v2.45h-.669v-3.726a19.6 19.6 0 0 0-.051-1.052zm-68.592 1.967H0V37.38h42.983z"/></g></g></svg>