<svg xmlns="http://www.w3.org/2000/svg" width="67" height="67" viewBox="0 0 67 67"><defs><clipPath id="r6j7a"><path fill="#fff" d="M0 67V-1h67v68zm2.25-33.625c0 17.38 14.012 31.469 31.297 31.469s31.297-14.09 31.297-31.47c0-17.379-14.012-31.468-31.297-31.468S2.25 15.996 2.25 33.375z"/></clipPath></defs><g><g><path fill="#414141" d="M33.547 1.906c17.285 0 31.297 14.09 31.297 31.469 0 17.38-14.012 31.469-31.297 31.469S2.25 50.754 2.25 33.374c0-17.379 14.012-31.468 31.297-31.468z"/><path fill="none" stroke="#3172b9" stroke-miterlimit="20" stroke-width="4" d="M33.547 1.906c17.285 0 31.297 14.09 31.297 31.469 0 17.38-14.012 31.469-31.297 31.469S2.25 50.754 2.25 33.374c0-17.379 14.012-31.468 31.297-31.468z" clip-path="url(&quot;#r6j7a&quot;)"/></g></g></svg>