<svg>
  <symbol id="service-1" viewBox="0 0 178 137" fill="none" xmlns="http://www.w3.org/2000/svg">
    <circle cx="60" cy="77" r="60" fill="#FF9900"/>
    <path fill-rule="evenodd" clip-rule="evenodd" d="M89.1306 15.4903C89.3996 15.0217 89.996 14.8609 90.4625 15.1311L147.512 48.172C147.978 48.4422 148.138 49.0411 147.869 49.5097C147.6 49.9783 147.004 50.1391 146.537 49.8689L89.4882 16.828C89.0216 16.5578 88.8615 15.9589 89.1306 15.4903Z" fill="black"/>
    <path fill-rule="evenodd" clip-rule="evenodd" d="M111.502 1.87485C113.63 0.646607 116.043 0 118.5 0C120.957 0 123.37 0.646607 125.498 1.87485C125.499 1.87524 125.499 1.87563 125.5 1.87602L171 27.8813C173.126 29.1091 174.892 30.8745 176.121 33.0004C177.349 35.1264 177.997 37.5381 178 39.9937V92.0063C177.997 94.4619 177.349 96.8736 176.121 98.9995C174.892 101.126 173.126 102.891 171 104.119L170.996 104.121L125.5 130.124C125.5 130.124 125.499 130.124 125.499 130.125C123.371 131.353 120.957 132 118.5 132C116.043 132 113.629 131.353 111.501 130.125C111.501 130.124 111.5 130.124 111.5 130.124L66.0039 104.121L66 104.119C63.8738 102.891 62.1079 101.126 60.8792 98.9995C59.6506 96.8736 59.0025 94.4619 59 92.0063V39.9937C59.0025 37.5381 59.6506 35.1264 60.8792 33.0004C62.1079 30.8745 63.8738 29.1091 66 27.8813L66.0039 27.8791L111.5 1.87602C111.501 1.87563 111.501 1.87524 111.502 1.87485ZM118.5 2.0004C116.394 2.0004 114.324 2.55499 112.5 3.60842L112.496 3.61064L67 29.6137C66.9993 29.6141 66.9986 29.6145 66.998 29.6148C65.1765 30.6672 63.6635 32.18 62.6108 34.0015C61.5577 35.8236 61.0022 37.8907 61 39.9953V92.0047C61.0022 94.1093 61.5577 96.1763 62.6108 97.9985C63.6634 99.8199 65.1763 101.333 66.9977 102.385C66.9984 102.385 66.9992 102.386 67 102.386L112.5 128.392C114.324 129.445 116.394 130 118.5 130C120.606 130 122.676 129.445 124.5 128.392L124.504 128.389L170 102.386C170.001 102.386 170.002 102.385 170.002 102.385C171.824 101.333 173.337 99.8199 174.389 97.9985C175.442 96.1762 175.998 94.109 176 92.0042V39.9958C175.998 37.891 175.442 35.8238 174.389 34.0015C173.337 32.18 171.824 30.6672 170.002 29.6148C170.001 29.6145 170.001 29.6141 170 29.6137L124.504 3.61064L124.5 3.60842C122.676 2.55499 120.606 2.0004 118.5 2.0004Z" fill="black"/>
    <path fill-rule="evenodd" clip-rule="evenodd" d="M61.1328 33.4876C61.4058 33.0209 62.0096 32.8614 62.4815 33.1314L118 64.8958L173.518 33.1314C173.99 32.8614 174.594 33.0209 174.867 33.4876C175.14 33.9543 174.979 34.5516 174.507 34.8216L118.494 66.8688C118.188 67.0437 117.812 67.0437 117.506 66.8688L61.493 34.8216C61.0211 34.5516 60.8598 33.9543 61.1328 33.4876Z" fill="black"/>
    <path fill-rule="evenodd" clip-rule="evenodd" d="M118 65C118.552 65 119 65.4376 119 65.9775V130.023C119 130.562 118.552 131 118 131C117.448 131 117 130.562 117 130.023V65.9775C117 65.4376 117.448 65 118 65Z" fill="black"/>
  </symbol>
  <symbol id="service-2" viewBox="0 0 178 153" fill="none" xmlns="http://www.w3.org/2000/svg">
    <circle cx="60" cy="93" r="59.5" fill="#FF9900" stroke="#FF9900"/>
    <path fill-rule="evenodd" clip-rule="evenodd" d="M114 47C105.163 47 98 54.1634 98 63C98 71.8366 105.163 79 114 79C122.837 79 130 71.8366 130 63C130 54.1634 122.837 47 114 47ZM96 63C96 53.0589 104.059 45 114 45C123.941 45 132 53.0589 132 63C132 72.9411 123.941 81 114 81C104.059 81 96 72.9411 96 63Z" fill="black"/>
    <path fill-rule="evenodd" clip-rule="evenodd" d="M114.5 2.00526C111.752 2.00526 109.117 3.09682 107.174 5.03979C105.231 6.98277 104.139 9.61801 104.139 12.3658V13.3317L104.139 13.3357C104.131 15.3594 103.532 17.3367 102.414 19.024C101.297 20.7114 99.7104 22.0352 97.8502 22.8324C97.7254 22.8859 97.591 22.9135 97.4553 22.9135H97.2066C95.3621 23.682 93.3333 23.9022 91.3642 23.5451C89.324 23.1752 87.4414 22.2026 85.9592 20.7527L85.9513 20.7449L85.6104 20.404C84.6482 19.4407 83.5051 18.6761 82.2474 18.1547C80.9896 17.6334 79.6415 17.365 78.2799 17.365C76.9184 17.365 75.5702 17.6334 74.3125 18.1547C73.0547 18.6761 71.9121 19.4403 70.9499 20.4036L70.9491 20.4044C69.9858 21.3666 69.2216 22.5093 68.7002 23.767C68.1788 25.0247 67.9105 26.3729 67.9105 27.7345C67.9105 29.096 68.1788 30.4442 68.7002 31.7019C69.2216 32.9597 69.9858 34.1023 70.9491 35.0645L71.2982 35.4136C72.7481 36.8959 73.7207 38.7785 74.0906 40.8187C74.4586 42.8485 74.2133 44.9417 73.3863 46.8311C72.6655 48.7728 71.3799 50.4546 69.6948 51.6599C68.0012 52.8712 65.9823 53.545 63.9006 53.5937L63.8771 53.594H63.3658C60.618 53.594 57.9828 54.6856 56.0398 56.6285C54.0968 58.5715 53.0053 61.2067 53.0053 63.9545C53.0053 66.7023 54.0968 69.3376 56.0398 71.2805C57.9828 73.2235 60.618 74.3151 63.3658 74.3151H64.3357C66.3594 74.3231 68.3367 74.9228 70.024 76.0402C71.7099 77.1567 73.0328 78.7414 73.8303 80.5994C74.6657 82.4951 74.9147 84.5974 74.5451 86.6358C74.1752 88.676 73.2026 90.5586 71.7527 92.0408L71.7449 92.0488L71.404 92.3896C70.4407 93.3518 69.6761 94.4949 69.1547 95.7526C68.6334 97.0104 68.365 98.3585 68.365 99.7201C68.365 101.082 68.6334 102.43 69.1547 103.688C69.6761 104.945 70.4403 106.088 71.4036 107.05L71.4044 107.051C72.3666 108.014 73.5092 108.778 74.767 109.3C76.0247 109.821 77.3729 110.09 78.7345 110.09C80.096 110.09 81.4442 109.821 82.7019 109.3C83.9597 108.778 85.1023 108.014 86.0645 107.051L86.4136 106.702C87.8959 105.252 89.7785 104.279 91.8187 103.909C93.8485 103.541 95.9417 103.787 97.8311 104.614C99.7728 105.335 101.455 106.62 102.66 108.305C103.871 109.999 104.545 112.018 104.594 114.099L104.594 114.123V114.634C104.594 117.382 105.686 120.017 107.629 121.96C109.571 123.903 112.207 124.995 114.955 124.995C117.702 124.995 120.338 123.903 122.281 121.96C124.223 120.017 125.315 117.382 125.315 114.634V113.668L125.315 113.664C125.323 111.641 125.923 109.663 127.04 107.976C128.157 106.29 129.741 104.967 131.599 104.17C133.495 103.334 135.597 103.085 137.636 103.455C139.676 103.825 141.559 104.797 143.041 106.247L143.049 106.255L143.39 106.596C144.352 107.559 145.495 108.324 146.753 108.845C148.01 109.367 149.359 109.635 150.72 109.635C152.082 109.635 153.43 109.367 154.688 108.845C155.945 108.324 157.088 107.56 158.05 106.596L158.051 106.596C159.014 105.633 159.778 104.491 160.3 103.233C160.821 101.975 161.09 100.627 161.09 99.2655C161.09 97.904 160.821 96.5558 160.3 95.2981C159.778 94.0403 159.014 92.8977 158.051 91.9355L157.702 91.5864C156.252 90.1041 155.279 88.2215 154.909 86.1813C154.54 84.1427 154.789 82.0402 155.624 80.1444C156.422 78.2866 157.745 76.7021 159.43 75.5857C161.118 74.4683 163.095 73.8686 165.119 73.8605L165.123 73.8605L165.634 73.8605C168.382 73.8605 171.017 72.769 172.96 70.826C174.903 68.883 175.995 66.2478 175.995 63.5C175.995 60.7522 174.903 58.117 172.96 56.174C171.017 54.231 168.382 53.1395 165.634 53.1395H164.668L164.664 53.1395C162.641 53.1314 160.663 52.5317 158.976 51.4143C157.289 50.2968 155.965 48.7104 155.168 46.8502C155.114 46.7254 155.087 46.591 155.087 46.4553V46.2066C154.318 44.3621 154.098 42.3333 154.455 40.3642C154.825 38.324 155.797 36.4414 157.247 34.9592L157.255 34.9513L157.596 34.6104C158.559 33.6482 159.324 32.5051 159.845 31.2474C160.367 29.9896 160.635 28.6415 160.635 27.2799C160.635 25.9184 160.367 24.5702 159.845 23.3125C159.324 22.0547 158.56 20.9121 157.596 19.9499L157.596 19.9491C156.633 18.9858 155.491 18.2216 154.233 17.7002C152.975 17.1788 151.627 16.9105 150.266 16.9105C148.904 16.9105 147.556 17.1788 146.298 17.7002C145.04 18.2216 143.898 18.9858 142.935 19.9491L142.586 20.2982C141.104 21.7481 139.221 22.7207 137.181 23.0906C135.143 23.4602 133.041 23.2112 131.145 22.3758C129.287 21.5783 127.702 20.2554 126.586 18.5695C125.468 16.8822 124.869 14.9049 124.861 12.8811L124.861 12.8771V12.3658C124.861 9.61801 123.769 6.98277 121.826 5.03979C119.883 3.09682 117.248 2.00526 114.5 2.00526ZM105.756 3.62186C108.075 1.30282 111.22 0 114.5 0C117.78 0 120.925 1.30282 123.244 3.62186C125.563 5.94089 126.866 9.08618 126.866 12.3658L126.866 12.8731C126.866 12.8738 126.866 12.8744 126.866 12.875C126.873 14.5071 127.356 16.1016 128.258 17.4623C129.159 18.8236 130.439 19.8916 131.94 20.5348L131.95 20.539C133.48 21.2144 135.178 21.4159 136.824 21.1175C138.468 20.8194 139.985 20.036 141.18 18.8683C141.182 18.8671 141.183 18.8659 141.184 18.8647L141.517 18.5319C141.517 18.5318 141.517 18.5321 141.517 18.5319C142.665 17.3824 144.029 16.47 145.53 15.8478C147.031 15.2255 148.64 14.9052 150.266 14.9052C151.891 14.9052 153.5 15.2255 155.001 15.8478C156.502 16.47 157.865 17.3818 159.014 18.5311C160.163 19.6796 161.075 21.0434 161.698 22.5446C162.32 24.0458 162.64 25.6549 162.64 27.2799C162.64 28.905 162.32 30.5141 161.698 32.0153C161.075 33.5165 160.163 34.8803 159.014 36.0287L158.681 36.3614C158.68 36.3627 158.678 36.364 158.677 36.3653C157.509 37.5605 156.726 39.0778 156.428 40.722C156.13 42.3679 156.331 44.0655 157.006 45.5959C157.063 45.7234 157.092 45.8613 157.092 46.0007V46.2434C157.742 47.6651 158.778 48.8778 160.083 49.7424C161.444 50.6436 163.038 51.1273 164.67 51.1342H165.634C168.914 51.1342 172.059 52.437 174.378 54.7561C176.697 57.0751 178 60.2204 178 63.5C178 66.7796 176.697 69.9249 174.378 72.2439C172.059 74.563 168.914 75.8658 165.634 75.8658L165.127 75.8658C165.126 75.8658 165.126 75.8658 165.125 75.8658C163.493 75.8727 161.898 76.3564 160.538 77.2576C159.176 78.1591 158.108 79.439 157.465 80.9397L157.461 80.9496C156.786 82.48 156.584 84.1776 156.882 85.8235C157.181 87.4676 157.964 88.9848 159.131 90.18C159.133 90.1814 159.134 90.1827 159.135 90.1841L159.468 90.5167C159.468 90.5169 159.468 90.5166 159.468 90.5167C160.618 91.6651 161.53 93.0292 162.152 94.5302C162.774 96.0314 163.095 97.6405 163.095 99.2655C163.095 100.891 162.774 102.5 162.152 104.001C161.53 105.502 160.618 106.866 159.468 108.014C158.32 109.163 156.956 110.075 155.455 110.698C153.954 111.32 152.345 111.64 150.72 111.64C149.095 111.64 147.486 111.32 145.985 110.698C144.484 110.075 143.12 109.163 141.972 108.014C141.972 108.014 141.972 108.014 141.972 108.014L141.639 107.681C141.637 107.679 141.636 107.678 141.635 107.677C140.439 106.509 138.922 105.726 137.278 105.428C135.632 105.13 133.934 105.331 132.404 106.006L132.394 106.011C130.894 106.654 129.614 107.722 128.712 109.083C127.811 110.444 127.327 112.038 127.32 113.67C127.32 113.671 127.32 113.672 127.32 113.672L127.32 114.634C127.32 117.914 126.017 121.059 123.698 123.378C121.379 125.697 118.234 127 114.955 127C111.675 127 108.53 125.697 106.211 123.378C103.892 121.059 102.589 117.914 102.589 114.634V114.135C102.547 112.459 102.004 110.835 101.029 109.472C100.052 108.105 98.6858 107.065 97.1092 106.485C97.0985 106.481 97.0879 106.477 97.0774 106.472C97.0684 106.469 97.0594 106.465 97.0504 106.461C95.5201 105.786 93.8224 105.584 92.1765 105.882C90.5323 106.181 89.015 106.964 87.8198 108.132C87.8185 108.133 87.8172 108.134 87.8159 108.135L87.4833 108.468C86.3348 109.618 84.971 110.53 83.4698 111.152C81.9686 111.774 80.3595 112.095 78.7345 112.095C77.1094 112.095 75.5003 111.774 73.9991 111.152C72.4979 110.53 71.1341 109.618 69.9857 108.468C68.8363 107.32 67.9245 105.956 67.3023 104.455C66.68 102.954 66.3597 101.345 66.3597 99.7201C66.3597 98.095 66.68 96.4859 67.3023 94.9847C67.9246 93.4837 68.8365 92.12 69.9861 90.9717C69.9862 90.9715 69.9859 90.9718 69.9861 90.9717L70.3192 90.6386C70.3204 90.6374 70.3217 90.6361 70.3229 90.6348C71.4906 89.4396 72.2739 87.9222 72.572 86.278C72.8705 84.6321 72.669 82.9345 71.9936 81.4041L71.9892 81.3943C71.346 79.8935 70.2781 78.6136 68.9168 77.7121C67.5561 76.811 65.9616 76.3272 64.3295 76.3203C64.3289 76.3203 64.3283 76.3203 64.3277 76.3203L63.3658 76.3203C60.0862 76.3203 56.9409 75.0175 54.6219 72.6985C52.3028 70.3794 51 67.2341 51 63.9545C51 60.6749 52.3028 57.5296 54.6219 55.2106C56.9409 52.8916 60.0862 51.5887 63.3658 51.5887H63.8651C65.5405 51.5473 67.165 51.0039 68.5283 50.0288C69.8947 49.0516 70.9354 47.6858 71.5153 46.1092C71.5226 46.0894 71.5305 46.0698 71.539 46.0504C72.2145 44.5201 72.4159 42.8224 72.1175 41.1765C71.8194 39.5323 71.0361 38.015 69.8684 36.8197L69.5319 36.4833C68.3822 35.3348 67.4701 33.971 66.8478 32.4698C66.2255 30.9686 65.9052 29.3595 65.9052 27.7345C65.9052 26.1094 66.2255 24.5003 66.8478 22.9991C67.4701 21.4979 68.3822 20.1341 69.5319 18.9857C70.6802 17.8363 72.0437 16.9245 73.5446 16.3023C75.0458 15.68 76.6549 15.3597 78.2799 15.3597C79.905 15.3597 81.5141 15.68 83.0153 16.3023C84.5163 16.9246 85.88 17.8365 87.0283 18.9861C87.0285 18.9862 87.0282 18.9859 87.0283 18.9861L87.3653 19.323C88.5605 20.4906 90.0778 21.2739 91.722 21.572C93.3679 21.8705 95.0655 21.669 96.5959 20.9936C96.7234 20.9373 96.8613 20.9082 97.0007 20.9082H97.2434C98.6651 20.2582 99.8778 19.2224 100.742 17.9168C101.644 16.5561 102.127 14.9616 102.134 13.3295V12.3658C102.134 9.08618 103.437 5.94089 105.756 3.62186Z" fill="black"/>
  </symbol>
  <symbol id="facebook" viewBox="0 0 61 61" fill="none" xmlns="http://www.w3.org/2000/svg">
    <path d="M30.9166 0.120117C14.4167 0.120117 0.916672 13.6442 0.916672 30.3008C0.916672 45.3611 11.8967 57.8611 26.2366 60.1201V39.0358H18.6166V30.3008H26.2366V23.6442C26.2366 16.084 30.7066 11.9273 37.5766 11.9273C40.8466 11.9273 44.2666 12.4996 44.2666 12.4996V19.9394H40.4866C36.7666 19.9394 35.5966 22.2587 35.5966 24.6382V30.3008H43.9366L42.5866 39.0358H35.5966V60.1201C42.6659 58.9992 49.1032 55.3777 53.7464 49.9095C58.3895 44.4412 60.9326 37.4865 60.9166 30.3008C60.9166 13.6442 47.4166 0.120117 30.9166 0.120117Z" fill="currentColor"/>
  </symbol>
  <symbol id="vk" viewBox="0 0 60 60" fill="none" xmlns="http://www.w3.org/2000/svg">
    <path d="M30 0C13.432 0 0 13.4314 0 30C0 46.5686 13.432 60 30 60C46.568 60 60 46.5686 60 30C60 13.4314 46.568 0 30 0ZM45.2176 33.2446C46.6159 34.6103 48.0951 35.8957 49.3504 37.4026C49.9065 38.0692 50.4307 38.7585 50.8297 39.5337C51.3993 40.6392 50.8849 41.8515 49.8954 41.9171L43.7494 41.9159C42.162 42.0473 40.8988 41.4071 39.8339 40.3218C38.9837 39.457 38.195 38.5332 37.3762 37.6389C37.0416 37.2718 36.6893 36.9262 36.2695 36.6543C35.4316 36.1093 34.7036 36.2762 34.2236 37.1515C33.7344 38.0421 33.6227 39.0292 33.5761 40.0205C33.5092 41.4697 33.0721 41.8484 31.618 41.9165C28.5109 42.062 25.5628 41.5906 22.8227 40.0241C20.4055 38.6425 18.5346 36.6924 16.9043 34.4845C13.7297 30.1805 11.2984 25.4566 9.11386 20.597C8.6222 19.5026 8.98189 18.917 10.1893 18.8943C12.1952 18.8557 14.2011 18.8606 16.2071 18.8925C17.0234 18.9054 17.5636 19.3725 17.8772 20.1428C18.9612 22.8098 20.2901 25.3473 21.9554 27.7007C22.3992 28.3274 22.8522 28.9522 23.4973 29.3948C24.2093 29.8834 24.7519 29.7219 25.0877 28.9271C25.3025 28.4219 25.3952 27.8817 25.4418 27.3404C25.6014 25.486 25.6205 23.6323 25.3442 21.7854C25.1724 20.6296 24.5224 19.8832 23.3702 19.6647C22.7834 19.5536 22.8694 19.3363 23.1548 19.0011C23.6501 18.4217 24.1142 18.0632 25.0416 18.0632L31.9857 18.062C33.0801 18.2768 33.3256 18.7679 33.4742 19.8703L33.4803 27.5871C33.4674 28.0137 33.6945 29.2782 34.4606 29.5574C35.0744 29.76 35.4795 29.2677 35.8465 28.8792C37.5118 27.112 38.6983 25.0263 39.7608 22.8675C40.2298 21.9155 40.6343 20.9303 41.0271 19.9433C41.3193 19.2135 41.7735 18.8544 42.5972 18.8667L49.2841 18.8747C49.4811 18.8747 49.6812 18.8765 49.8764 18.9103C51.0034 19.103 51.3121 19.5879 50.9635 20.6873C50.4147 22.4145 49.3485 23.8533 48.3063 25.2958C47.1892 26.8401 45.9977 28.3304 44.8917 29.8815C43.8752 31.2994 43.9556 32.0133 45.2176 33.2446Z" fill="currentColor"/>
  </symbol>
  <symbol id="inst" viewBox="0 0 60 60" fill="none" xmlns="http://www.w3.org/2000/svg">
    <path d="M24.2578 30C24.2578 33.1714 26.8286 35.7422 30 35.7422C33.1714 35.7422 35.7422 33.1714 35.7422 30C35.7422 26.8286 33.1714 24.2578 30 24.2578C26.8286 24.2578 24.2578 26.8286 24.2578 30Z" fill="currentColor"/>
    <path d="M16.571 19.8403C16.8471 19.0923 17.2874 18.4153 17.8596 17.8596C18.4154 17.2874 19.0919 16.847 19.8404 16.571C20.4474 16.3352 21.3593 16.0546 23.0388 15.9781C24.8557 15.8953 25.4004 15.8774 30 15.8774C34.6001 15.8774 35.1448 15.8948 36.9612 15.9777C38.6407 16.0546 39.5531 16.3352 40.1596 16.571C40.9081 16.847 41.5851 17.2874 42.1404 17.8596C42.7126 18.4153 43.1529 19.0919 43.4294 19.8403C43.6652 20.4473 43.9458 21.3596 44.0222 23.0392C44.1051 24.8556 44.1229 25.4003 44.1229 30.0004C44.1229 34.6 44.1051 35.1447 44.0222 36.9616C43.9458 38.6411 43.6652 39.553 43.4294 40.16C43.1529 40.9084 42.713 41.585 42.1408 42.1407C41.5851 42.7129 40.9085 43.1533 40.1601 43.4293C39.5531 43.6655 38.6407 43.9461 36.9612 44.0226C35.1448 44.1054 34.6005 44.1228 30.0005 44.1228C25.3999 44.1228 24.8552 44.1054 23.0392 44.0226C21.3597 43.9461 20.4474 43.6655 19.8404 43.4293C18.338 42.8498 17.1506 41.6624 16.571 40.16C16.3353 39.553 16.0547 38.6411 15.9778 36.9616C15.8949 35.1447 15.8775 34.6 15.8775 30.0004C15.8775 25.4003 15.8949 24.8556 15.9778 23.0392C16.0542 21.3596 16.3348 20.4473 16.571 19.8403ZM30 38.8457C34.8857 38.8457 38.8463 34.8856 38.8463 29.9999C38.8463 25.1142 34.8857 21.1541 30 21.1541C25.1147 21.1541 21.1542 25.1142 21.1542 29.9999C21.1542 34.8856 25.1147 38.8457 30 38.8457ZM20.8044 22.8716C21.9461 22.8716 22.8717 21.946 22.8717 20.8044C22.8717 19.6627 21.9461 18.7371 20.8044 18.7371C19.6628 18.7371 18.7372 19.6627 18.7372 20.8044C18.7376 21.946 19.6628 22.8716 20.8044 22.8716Z" fill="currentColor"/>
    <path d="M30 0C46.566 0 60 13.434 60 30C60 46.566 46.566 60 30 60C13.434 60 0 46.566 0 30C0 13.434 13.434 0 30 0ZM12.8773 37.1022C12.9607 38.936 13.2523 40.188 13.678 41.2839C14.5729 43.5979 16.4021 45.4271 18.7161 46.322C19.8116 46.7477 21.064 47.0389 22.8973 47.1227C24.7343 47.2064 25.3212 47.2266 29.9995 47.2266C34.6783 47.2266 35.2647 47.2064 37.1022 47.1227C38.9355 47.0389 40.188 46.7477 41.2834 46.322C42.4333 45.8894 43.4743 45.2115 44.3349 44.3349C45.211 43.4747 45.889 42.4333 46.3216 41.2839C46.7473 40.1884 47.0389 38.936 47.1222 37.1027C47.2069 35.2652 47.2266 34.6783 47.2266 30C47.2266 25.3217 47.2069 24.7348 47.1227 22.8978C47.0393 21.064 46.7482 19.812 46.3225 18.7161C45.8899 17.5667 45.2115 16.5253 44.3349 15.6651C43.4747 14.7885 42.4333 14.1106 41.2839 13.678C40.188 13.2523 38.936 12.9611 37.1022 12.8773C35.2652 12.7936 34.6783 12.7734 30 12.7734C25.3217 12.7734 24.7348 12.7936 22.8978 12.8778C21.064 12.9611 19.812 13.2523 18.7161 13.6775C17.5667 14.1101 16.5253 14.7885 15.6647 15.6651C14.7885 16.5257 14.1101 17.5667 13.678 18.7161C13.2518 19.812 12.9607 21.064 12.8769 22.8978C12.7931 24.7348 12.7734 25.3217 12.7734 30C12.7734 34.6783 12.7931 35.2652 12.8773 37.1022Z" fill="currentColor"/>
  </symbol>
  <symbol id="burger_close" viewBox="0 0 23 23" fill="none" xmlns="http://www.w3.org/2000/svg">
    <rect x="2.09082" width="29.5699" height="2.95699" transform="rotate(45 2.09082 0)" fill="#333333"/>
    <rect y="20.9092" width="29.5699" height="2.95699" transform="rotate(-45 0 20.9092)" fill="#333333"/>
  </symbol>
  <symbol id="plus" viewBox="0 0 31 31" fill="none" xmlns="http://www.w3.org/2000/svg">
    <path fill-rule="evenodd" clip-rule="evenodd" d="M15.0571 15.0571L15.0571 -3.42467e-06L15.9429 -3.42467e-06L15.9429 15.0571L23.8835 15.0571L31 15.0571L31 15.9429L15.9429 15.9429L15.9429 31L15.0571 31L15.0571 15.9429L6.23563e-06 15.9429L6.31306e-06 15.0571L15.0571 15.0571Z" fill="currentColor"/>
  </symbol>

  <symbol id="logo" viewBox="0 0 173 40" fill="none" xmlns="http://www.w3.org/2000/svg">
    <path d="M2.78965 32.7802L0.289746 29.1348H2.09561L3.79365 31.7425L5.50518 29.1348H7.29756L4.79092 32.7802L7.42559 36.5873H5.6332L3.79365 33.7977L1.96084 36.5873H0.168457L2.78965 32.7802Z" fill="white"/>
    <path d="M7.60078 29.1348H9.32578L10.8419 33.3597C11.071 33.9616 11.2237 34.5276 11.3001 35.0577H11.354C11.3944 34.8106 11.4686 34.5119 11.5764 34.1615C11.6842 33.8066 12.2547 32.1311 13.2879 29.1348H14.9994L11.8122 37.5778C11.2327 39.1276 10.2669 39.9025 8.91475 39.9025C8.56436 39.9025 8.22295 39.8644 7.89053 39.788V38.5347C8.12861 38.5886 8.40039 38.6155 8.70586 38.6155C9.46953 38.6155 10.0063 38.173 10.3163 37.2881L10.5926 36.5873L7.60078 29.1348Z" fill="white"/>
    <path d="M23.2808 39.222H21.8051V36.5873H16.6975V39.222H15.2353V35.3609H15.8417C16.3718 34.6018 16.7918 33.6854 17.1018 32.6117C17.4162 31.5336 17.6026 30.3746 17.661 29.1348H22.1892V35.3609H23.2808V39.222ZM20.6326 35.3609V30.3477H19.0289C18.9436 31.273 18.7639 32.185 18.4898 33.0834C18.2203 33.9818 17.8901 34.741 17.4993 35.3609H20.6326Z" fill="white"/>
    <path d="M31.2724 32.8476C31.2724 34.0649 30.9602 35.015 30.3357 35.6979C29.7113 36.3807 28.8421 36.7221 27.728 36.7221C27.0317 36.7221 26.4163 36.5648 25.8817 36.2504C25.3472 35.9359 24.9361 35.4845 24.6486 34.896C24.3611 34.3075 24.2174 33.6247 24.2174 32.8476C24.2174 31.6392 24.5273 30.6958 25.1473 30.0175C25.7672 29.3392 26.6409 29 27.7685 29C28.8466 29 29.7001 29.3481 30.329 30.0444C30.9579 30.7362 31.2724 31.6706 31.2724 32.8476ZM25.848 32.8476C25.848 34.5681 26.4837 35.4283 27.755 35.4283C29.0128 35.4283 29.6417 34.5681 29.6417 32.8476C29.6417 31.145 29.0083 30.2938 27.7415 30.2938C27.0767 30.2938 26.5938 30.5139 26.2928 30.9541C25.9963 31.3943 25.848 32.0255 25.848 32.8476Z" fill="white"/>
    <path d="M36.7708 32.7532V29.1348H38.2465V32.7532L41.117 29.1348H42.7881L39.8569 32.7397L43.0509 36.5873H41.3057L38.2465 32.8071V36.5873H36.7708V32.8071L33.7184 36.5873H31.9799L35.1671 32.7397L32.2427 29.1348H33.9138L36.7708 32.7532Z" fill="white"/>
    <path d="M47.4577 36.7221C46.2987 36.7221 45.3913 36.3852 44.7355 35.7113C44.0841 35.033 43.7584 34.1009 43.7584 32.9149C43.7584 31.6976 44.0616 30.7407 44.6681 30.0444C45.2745 29.3481 46.1078 29 47.168 29C48.1518 29 48.9289 29.2987 49.4994 29.8962C50.0699 30.4937 50.3552 31.3157 50.3552 32.3624V33.2182H45.3891C45.4115 33.9414 45.6069 34.4984 45.9753 34.8893C46.3437 35.2756 46.8625 35.4687 47.5318 35.4687C47.9721 35.4687 48.3809 35.4283 48.7582 35.3475C49.14 35.2621 49.5488 35.1229 49.9846 34.9297V36.2167C49.5982 36.4009 49.2074 36.5312 48.8121 36.6075C48.4168 36.6839 47.9653 36.7221 47.4577 36.7221ZM47.168 30.1994C46.6648 30.1994 46.2605 30.3589 45.9551 30.6778C45.6541 30.9968 45.4744 31.4617 45.416 32.0727H48.7986C48.7896 31.4572 48.6414 30.9923 48.3539 30.6778C48.0664 30.3589 47.6711 30.1994 47.168 30.1994Z" fill="white"/>
    <path d="M55.1596 36.7221C54.032 36.7221 53.174 36.3941 52.5855 35.7383C52.0016 35.0779 51.7096 34.1323 51.7096 32.9015C51.7096 31.6481 52.015 30.6846 52.626 30.0107C53.2414 29.3369 54.1286 29 55.2876 29C56.0737 29 56.7812 29.146 57.4102 29.438L56.9317 30.7115C56.2624 30.451 55.7099 30.3207 55.2741 30.3207C53.9849 30.3207 53.3402 31.1765 53.3402 32.888C53.3402 33.7235 53.4997 34.3524 53.8187 34.7747C54.1421 35.1925 54.6138 35.4014 55.2337 35.4014C55.939 35.4014 56.6061 35.2262 57.235 34.8758V36.2571C56.952 36.4233 56.6487 36.5424 56.3253 36.6143C56.0063 36.6861 55.6178 36.7221 55.1596 36.7221Z" fill="white"/>
    <path d="M64.5864 29.1348V30.3746H62.1606V36.5873H60.5704V30.3746H58.1446V29.1348H64.5864Z" fill="white"/>
    <path d="M72.4904 31.0417C72.4904 31.9222 71.9761 32.4545 70.9474 32.6387V32.6926C71.5224 32.76 71.9626 32.9419 72.2681 33.2384C72.5735 33.5349 72.7263 33.9189 72.7263 34.3906C72.7263 35.0959 72.4567 35.6395 71.9177 36.0213C71.3831 36.3986 70.6037 36.5873 69.5795 36.5873H66.0217V29.1348H69.566C71.5156 29.1348 72.4904 29.7704 72.4904 31.0417ZM71.1023 34.2963C71.1023 33.9369 70.9631 33.6831 70.6846 33.5349C70.4061 33.3821 69.9883 33.3058 69.4313 33.3058H67.6052V35.4148H69.4717C70.5588 35.4148 71.1023 35.042 71.1023 34.2963ZM70.9069 31.1765C70.9069 30.88 70.7901 30.6666 70.5565 30.5363C70.3274 30.4016 69.9838 30.3342 69.5256 30.3342H67.6052V32.1266H69.2897C69.8198 32.1266 70.2219 32.0592 70.4959 31.9244C70.7699 31.7852 70.9069 31.5358 70.9069 31.1765Z" fill="white"/>
    <path d="M77.6183 36.7221C76.4593 36.7221 75.5519 36.3852 74.896 35.7113C74.2446 35.033 73.9189 34.1009 73.9189 32.9149C73.9189 31.6976 74.2222 30.7407 74.8286 30.0444C75.4351 29.3481 76.2684 29 77.3285 29C78.3123 29 79.0895 29.2987 79.66 29.8962C80.2305 30.4937 80.5157 31.3157 80.5157 32.3624V33.2182H75.5496C75.5721 33.9414 75.7675 34.4984 76.1358 34.8893C76.5042 35.2756 77.023 35.4687 77.6924 35.4687C78.1326 35.4687 78.5414 35.4283 78.9188 35.3475C79.3006 35.2621 79.7094 35.1229 80.1451 34.9297V36.2167C79.7588 36.4009 79.368 36.5312 78.9727 36.6075C78.5773 36.6839 78.1259 36.7221 77.6183 36.7221ZM77.3285 30.1994C76.8254 30.1994 76.4211 30.3589 76.1156 30.6778C75.8147 30.9968 75.635 31.4617 75.5766 32.0727H78.9592C78.9502 31.4572 78.802 30.9923 78.5145 30.6778C78.227 30.3589 77.8316 30.1994 77.3285 30.1994Z" fill="white"/>
    <path d="M83.8983 29.1348V32.1266H87.409V29.1348H88.9925V36.5873H87.409V33.3731H83.8983V36.5873H82.3148V29.1348H83.8983Z" fill="white"/>
    <path d="M92.8468 29.1348V32.1266H96.3574V29.1348H97.9409V36.5873H96.3574V33.3731H92.8468V36.5873H91.2633V29.1348H92.8468Z" fill="white"/>
    <path d="M104.875 36.5873L104.558 35.5496H104.504C104.145 36.0033 103.783 36.3133 103.419 36.4795C103.055 36.6412 102.588 36.7221 102.018 36.7221C101.285 36.7221 100.713 36.5244 100.299 36.1291C99.8905 35.7338 99.6861 35.1745 99.6861 34.4513C99.6861 33.6831 99.9714 33.1036 100.542 32.7128C101.112 32.322 101.982 32.1086 103.15 32.0727L104.437 32.0322V31.6347C104.437 31.1585 104.324 30.8036 104.1 30.57C103.88 30.3319 103.536 30.2129 103.069 30.2129C102.687 30.2129 102.321 30.269 101.97 30.3813C101.62 30.4937 101.283 30.6262 100.96 30.7789L100.448 29.6469C100.852 29.4357 101.294 29.2763 101.775 29.1685C102.256 29.0562 102.709 29 103.136 29C104.084 29 104.798 29.2066 105.279 29.6199C105.764 30.0332 106.007 30.6823 106.007 31.5673V36.5873H104.875ZM102.516 35.5092C103.091 35.5092 103.552 35.3497 103.898 35.0308C104.248 34.7073 104.423 34.2559 104.423 33.6764V33.0295L103.466 33.0699C102.721 33.0969 102.177 33.2227 101.836 33.4473C101.499 33.6674 101.33 34.0065 101.33 34.4647C101.33 34.7972 101.429 35.0555 101.627 35.2396C101.824 35.4193 102.121 35.5092 102.516 35.5092Z" fill="white"/>
    <path d="M108.978 36.5873H107.206L109.281 33.5349C108.778 33.3911 108.383 33.1351 108.096 32.7667C107.808 32.3938 107.664 31.9334 107.664 31.3854C107.664 30.6801 107.916 30.1298 108.419 29.7345C108.922 29.3347 109.609 29.1348 110.481 29.1348H113.877V36.5873H112.287V33.7168H110.784L108.978 36.5873ZM109.207 31.3988C109.207 31.7807 109.351 32.0682 109.639 32.2613C109.931 32.45 110.321 32.5443 110.811 32.5443H112.287V30.3342H110.562C110.13 30.3342 109.796 30.4263 109.558 30.6104C109.324 30.7946 109.207 31.0574 109.207 31.3988Z" fill="white"/>
    <path d="M124.544 29.1348V30.3746H121.309V36.5873H119.726V29.1348H124.544Z" fill="white"/>
    <path d="M130.642 36.5873L130.325 35.5496H130.271C129.912 36.0033 129.55 36.3133 129.186 36.4795C128.822 36.6412 128.355 36.7221 127.785 36.7221C127.053 36.7221 126.48 36.5244 126.067 36.1291C125.658 35.7338 125.453 35.1745 125.453 34.4513C125.453 33.6831 125.739 33.1036 126.309 32.7128C126.88 32.322 127.749 32.1086 128.917 32.0727L130.204 32.0322V31.6347C130.204 31.1585 130.092 30.8036 129.867 30.57C129.647 30.3319 129.303 30.2129 128.836 30.2129C128.454 30.2129 128.088 30.269 127.738 30.3813C127.387 30.4937 127.05 30.6262 126.727 30.7789L126.215 29.6469C126.619 29.4357 127.062 29.2763 127.542 29.1685C128.023 29.0562 128.477 29 128.903 29C129.851 29 130.565 29.2066 131.046 29.6199C131.531 30.0332 131.774 30.6823 131.774 31.5673V36.5873H130.642ZM128.283 35.5092C128.858 35.5092 129.319 35.3497 129.665 35.0308C130.015 34.7073 130.19 34.2559 130.19 33.6764V33.0295L129.234 33.0699C128.488 33.0969 127.944 33.2227 127.603 33.4473C127.266 33.6674 127.097 34.0065 127.097 34.4647C127.097 34.7972 127.196 35.0555 127.394 35.2396C127.592 35.4193 127.888 35.5092 128.283 35.5092Z" fill="white"/>
    <path d="M140.109 36.5873H138.512V30.3746H136.457C136.331 31.9738 136.16 33.2227 135.945 34.1211C135.734 35.0195 135.455 35.6754 135.109 36.0887C134.768 36.502 134.323 36.7086 133.775 36.7086C133.429 36.7086 133.139 36.6592 132.906 36.5604V35.3205C133.072 35.3834 133.238 35.4148 133.404 35.4148C133.863 35.4148 134.222 34.9005 134.483 33.8718C134.748 32.8386 134.954 31.2596 135.103 29.1348H140.109V36.5873Z" fill="white"/>
    <path d="M145.634 36.7221C144.475 36.7221 143.568 36.3852 142.912 35.7113C142.261 35.033 141.935 34.1009 141.935 32.9149C141.935 31.6976 142.238 30.7407 142.845 30.0444C143.451 29.3481 144.285 29 145.345 29C146.329 29 147.106 29.2987 147.676 29.8962C148.247 30.4937 148.532 31.3157 148.532 32.3624V33.2182H143.566C143.588 33.9414 143.784 34.4984 144.152 34.8893C144.52 35.2756 145.039 35.4687 145.709 35.4687C146.149 35.4687 146.558 35.4283 146.935 35.3475C147.317 35.2621 147.726 35.1229 148.161 34.9297V36.2167C147.775 36.4009 147.384 36.5312 146.989 36.6075C146.594 36.6839 146.142 36.7221 145.634 36.7221ZM145.345 30.1994C144.842 30.1994 144.437 30.3589 144.132 30.6778C143.831 30.9968 143.651 31.4617 143.593 32.0727H146.975C146.966 31.4572 146.818 30.9923 146.531 30.6778C146.243 30.3589 145.848 30.1994 145.345 30.1994Z" fill="white"/>
    <path d="M154.111 36.7221C153.168 36.7221 152.436 36.3829 151.915 35.7046H151.82C151.883 36.3335 151.915 36.7153 151.915 36.8501V39.9025H150.331V29.1348H151.611C151.647 29.274 151.721 29.6064 151.834 30.132H151.915C152.409 29.3773 153.15 29 154.138 29C155.068 29 155.791 29.3369 156.308 30.0107C156.829 30.6846 157.09 31.6302 157.09 32.8476C157.09 34.0649 156.825 35.015 156.294 35.6979C155.769 36.3807 155.041 36.7221 154.111 36.7221ZM153.727 30.2938C153.098 30.2938 152.638 30.4779 152.346 30.8463C152.058 31.2146 151.915 31.8031 151.915 32.6117V32.8476C151.915 33.755 152.058 34.4131 152.346 34.8219C152.633 35.2262 153.103 35.4283 153.754 35.4283C154.302 35.4283 154.724 35.2037 155.021 34.7545C155.317 34.3053 155.466 33.6651 155.466 32.8341C155.466 31.9985 155.317 31.3674 155.021 30.9406C154.729 30.5094 154.298 30.2938 153.727 30.2938Z" fill="white"/>
    <path d="M162.184 36.7221C161.025 36.7221 160.117 36.3852 159.461 35.7113C158.81 35.033 158.484 34.1009 158.484 32.9149C158.484 31.6976 158.788 30.7407 159.394 30.0444C160 29.3481 160.834 29 161.894 29C162.878 29 163.655 29.2987 164.225 29.8962C164.796 30.4937 165.081 31.3157 165.081 32.3624V33.2182H160.115C160.137 33.9414 160.333 34.4984 160.701 34.8893C161.07 35.2756 161.588 35.4687 162.258 35.4687C162.698 35.4687 163.107 35.4283 163.484 35.3475C163.866 35.2621 164.275 35.1229 164.711 34.9297V36.2167C164.324 36.4009 163.933 36.5312 163.538 36.6075C163.143 36.6839 162.691 36.7221 162.184 36.7221ZM161.894 30.1994C161.391 30.1994 160.987 30.3589 160.681 30.6778C160.38 30.9968 160.2 31.4617 160.142 32.0727H163.525C163.516 31.4572 163.367 30.9923 163.08 30.6778C162.792 30.3589 162.397 30.1994 161.894 30.1994Z" fill="white"/>
    <path d="M167.642 36.5873H165.87L167.945 33.5349C167.442 33.3911 167.046 33.1351 166.759 32.7667C166.471 32.3938 166.328 31.9334 166.328 31.3854C166.328 30.6801 166.579 30.1298 167.082 29.7345C167.586 29.3347 168.273 29.1348 169.144 29.1348H172.54V36.5873H170.95V33.7168H169.448L167.642 36.5873ZM167.871 31.3988C167.871 31.7807 168.015 32.0682 168.302 32.2613C168.594 32.45 168.985 32.5443 169.475 32.5443H170.95V30.3342H169.225C168.794 30.3342 168.459 30.4263 168.221 30.6104C167.988 30.7946 167.871 31.0574 167.871 31.3988Z" fill="white"/>
    <path d="M0 21.5989H11.6611C16.2601 21.5989 18.6142 19.5161 18.6142 15.5512V15.4895C18.6142 12.5428 17.1175 10.7532 14.2334 10.244V9.96634C16.6498 9.50351 17.9126 7.92987 17.9126 5.36886V5.29173C17.9126 1.80505 15.7145 0 11.4117 0H0V21.5989ZM4.59897 8.84011V3.0547H10.0398C12.2379 3.0547 13.3292 4.01122 13.3292 5.89341V5.95512C13.3292 7.86816 12.2379 8.84011 10.0398 8.84011H4.59897ZM4.59897 18.5288V11.648H10.1801C12.5965 11.648 13.7969 12.7896 13.7969 15.0266V15.0884C13.7969 17.3717 12.5965 18.5288 10.1801 18.5288H4.59897Z" fill="white"/>
    <path d="M22.9462 0V21.5989H27.4828V0H22.9462Z" fill="white"/>
    <path d="M36.9751 22C40.6387 22 43.3046 20.3801 44.2867 17.6339L44.5985 17.7111C44.0061 20.7041 44.6297 22 48.2153 22C48.6674 22 49.1195 21.9537 49.4937 21.892L50.0237 19.223L49.2443 19.2076C48.3868 19.1921 48.1374 18.9916 48.1374 17.8962V10.4755C48.1374 6.80365 45.6742 5.04488 40.4205 5.04488C34.8393 5.04488 32.0176 7.2202 32.2514 10.9846L36.7257 11.3548C36.5386 8.87097 37.817 7.74474 40.3269 7.74474C42.5718 7.74474 43.6319 8.56241 43.6319 10.4292V11.3394L39.2045 12.1417C34.777 12.9593 31.8461 14.3478 31.8461 17.7419V17.7882C31.8461 20.4727 33.6857 22 36.9751 22ZM38.7835 19.007C37.2557 19.007 36.4295 18.467 36.4295 17.3562V17.3254C36.4295 15.7363 37.8793 15.0884 40.7478 14.533L43.6319 13.9776V14.7335C43.6319 17.2174 41.3714 19.007 38.7835 19.007Z" fill="white"/>
    <path d="M53.8414 21.5989H58.378V14.0701C58.378 10.4292 60.1084 8.17672 62.9769 8.17672C65.1127 8.17672 66.1728 9.27209 66.1728 11.3703V21.5989H70.7095V10.2903C70.7095 6.89621 68.6984 5.10659 64.9568 5.10659C61.5583 5.10659 59.2354 6.58766 57.8635 9.67321L57.5517 9.53436C58.1753 7.69846 58.3936 6.60309 58.3936 5.39972H53.8414V21.5989Z" fill="white"/>
    <path d="M84.2083 21.9846C89.5556 21.9846 92.5488 19.8555 93.0009 15.7363L88.4175 15.2272C88.2305 17.8191 86.7962 19.1304 84.2239 19.1304C81.3398 19.1304 79.8432 17.3408 79.8432 13.8079V13.0519C79.8432 9.59607 81.3554 7.85273 84.1771 7.85273C86.7806 7.85273 88.1369 9.28752 88.3396 12.1571L92.8606 11.648C92.502 7.28191 89.618 5.01403 84.1927 5.01403C78.2998 5.01403 75.1974 7.86816 75.1974 13.3296V13.5302C75.1974 19.0842 78.2686 21.9846 84.2083 21.9846Z" fill="white"/>
    <path d="M97.5201 21.5989H102.057V14.0701C102.057 10.4292 103.772 8.19215 106.656 8.19215C108.791 8.19215 109.852 9.27209 109.852 11.3703V21.5989H114.388V10.2903C114.388 6.89621 112.362 5.10659 108.636 5.10659C105.206 5.10659 102.899 6.58766 101.542 9.65778L101.215 9.53436C101.823 7.80645 102.041 6.52595 102.057 4.9986V0H97.5201V21.5989Z" fill="white"/>
    <path d="M123.803 22C127.466 22 130.132 20.3801 131.114 17.6339L131.426 17.7111C130.833 20.7041 131.457 22 135.043 22C135.495 22 135.947 21.9537 136.321 21.892L136.851 19.223L136.072 19.2076C135.214 19.1921 134.965 18.9916 134.965 17.8962V10.4755C134.965 6.80365 132.502 5.04488 127.248 5.04488C121.667 5.04488 118.845 7.2202 119.079 10.9846L123.553 11.3548C123.366 8.87097 124.644 7.74474 127.154 7.74474C129.399 7.74474 130.459 8.56241 130.459 10.4292V11.3394L126.032 12.1417C121.604 12.9593 118.673 14.3478 118.673 17.7419V17.7882C118.673 20.4727 120.513 22 123.803 22ZM125.611 19.007C124.083 19.007 123.257 18.467 123.257 17.3562V17.3254C123.257 15.7363 124.707 15.0884 127.575 14.533L130.459 13.9776V14.7335C130.459 17.2174 128.199 19.007 125.611 19.007Z" fill="white"/>
    <path d="M140.669 21.5989H145.205V14.8261C145.205 10.5989 146.53 9.04067 149.991 8.79383L152.221 8.62412L151.691 4.8906C148.027 5.1683 146.328 6.30996 144.644 9.67321L144.348 9.53436C145.081 7.37447 145.252 6.51052 145.221 5.39972H140.669V21.5989Z" fill="white"/>
    <path d="M162.243 21.892C165.61 21.892 167.809 20.3492 168.915 17.5568L169.243 17.6648C168.713 19.3619 168.432 20.7041 168.417 21.5989H173V0H168.463V4.39691C168.463 6.09397 168.697 7.46704 169.258 9.3338L168.947 9.45722C167.84 6.68022 165.626 5.07574 162.243 5.07574C157.566 5.07574 155.103 7.89902 155.103 13.2987V13.6844C155.103 19.0687 157.566 21.892 162.243 21.892ZM163.958 19.115C161.152 19.115 159.686 17.3408 159.686 13.8387V13.129C159.686 9.6115 161.152 7.82188 163.958 7.82188C166.889 7.82188 168.463 9.70407 168.463 13.2062V13.7616C168.463 17.2482 166.889 19.115 163.958 19.115Z" fill="white"/>
  </symbol>

  <symbol id="burger" viewBox="0 0 21 15" fill="none" xmlns="http://www.w3.org/2000/svg">
    <rect width="19.9996" height="1.95652" transform="matrix(-1 0 0 1 21 0)" fill="white"/>
    <path d="M16.666 6.52173H0.999637V8.47825H16.666V6.52173Z" fill="white"/>
    <path d="M14.332 13.0435H0.998943V15H14.332V13.0435Z" fill="white"/>
  </symbol>

  <symbol id="search" viewBox="0 0 16 16" fill="none" xmlns="http://www.w3.org/2000/svg">
    <rect width="5.02605" height="1.25651" transform="matrix(-0.71131 0.702878 0.71131 0.702878 3.57617 11.5841)" fill="white"/>
    <path fill-rule="evenodd" clip-rule="evenodd" d="M8.75929 13.3207C5.45281 13.3207 2.89432 10.5994 2.89432 7.40037C2.89432 4.2013 5.45281 1.48007 8.75929 1.48007C12.0658 1.48007 14.6243 4.2013 14.6243 7.40037C14.6243 10.5994 12.0658 13.3207 8.75929 13.3207ZM8.75929 14.8007C4.76036 14.8007 1.51858 11.4875 1.51858 7.40037C1.51858 3.31326 4.76036 0 8.75929 0C12.7582 0 16 3.31326 16 7.40037C16 11.4875 12.7582 14.8007 8.75929 14.8007Z" fill="white"/>
  </symbol>

</svg>
